<?xml version="1.0" standalone="no"?>
<!DOCTYPE svg PUBLIC "-//W3C//DTD SVG 20010904//EN"
 "http://www.w3.org/TR/2001/REC-SVG-20010904/DTD/svg10.dtd">
<svg version="1.0" xmlns="http://www.w3.org/2000/svg"
 width="336.000000pt" height="336.000000pt" viewBox="0 0 336.000000 336.000000"
 preserveAspectRatio="xMidYMid meet">
<metadata>
Created by potrace 1.11, written by Peter Selinger 2001-2013
</metadata>
<g transform="translate(0.000000,336.000000) scale(0.100000,-0.100000)"
fill="#000000" stroke="none">
<path d="M675 3294 c20 -31 654 -1044 674 -1076 9 -15 79 -128 156 -250 165
-261 178 -285 169 -301 -13 -22 -556 -891 -589 -942 -18 -27 -67 -106 -110
-175 -42 -69 -87 -141 -100 -160 -12 -19 -65 -104 -118 -188 l-96 -152 327 -1
c837 -2 916 -1 919 7 2 5 32 54 67 109 113 179 251 398 307 488 77 126 77 125
151 244 37 59 72 115 78 123 21 31 270 431 312 501 41 69 43 78 43 149 0 41
-3 84 -6 95 -9 33 -54 112 -159 275 -94 147 -140 221 -185 296 -57 95 -151
239 -157 242 -5 2 -8 7 -8 12 0 5 -22 44 -49 87 -88 139 -315 502 -357 571
l-42 67 -621 0 -620 0 14 -21z"/>
</g>
</svg>
